#!OML:ASF G:\JayActor3\Patient Classification 1\Patient 1\Session 6\male.ASF
:FULLY-SPECIFIED
:DEGREES
575
root 24.2498 15.6832 -19.4397 173.526 -45.7443 -171.69
lowerback 1.53901 -5.03963 -0.27107
upperback 1.65479 -6.75367 0.782924
thorax 0.96444 -3.39667 0.989088
lowerneck -6.53501 0.573429 1.69708
upperneck 2.95371 0.662579 -1.00519
head 2.05758 0.321532 -0.583762
rclavicle -6.78353e-015 -9.54166e-015
rhumerus -45.3011 -14.7181 -64.5633
rradius 18.3433
rwrist 9.89811
rhand -20.7548 -10.9119
rfingers 7.12502
rthumb 5.61106 -40.8177
lclavicle -6.78353e-015 -9.54166e-015
lhumerus 1.99113 -16.5135 72.845
lradius 68.3936
lwrist 33.9895
lhand -19.9543 13.147
lfingers 7.12502
lthumb 6.38393 43.0308
rfemur -34.1142 1.80549 32.4765
rtibia 30.106
rfoot -23.5335 -7.74934
rtoes -21.8673
lfemur 25.1295 17.0142 -25.8819
ltibia -9.54166e-015
lfoot 8.76809 -16.1176
ltoes 19.8039
576
root 24.0602 15.6476 -19.5148 173.882 -45.9604 -172.239
lowerback 1.38988 -5.05186 -0.460845
upperback 1.54104 -6.7678 0.790103
thorax 0.953876 -3.40391 1.09136
lowerneck -6.57366 0.540049 1.66966
upperneck 3.24339 0.628802 -1.13377
head 2.16043 0.301923 -0.622014
rclavicle 1.4059e-013 -2.94201e-014
rhumerus -45.5153 -14.706 -64.3358
rradius 18.4599
rwrist 9.6699
rhand -20.7677 -11.0104
rfingers 7.12502
rthumb 5.59867 -40.9165
lclavicle 1.4059e-013 -2.94201e-014
lhumerus 1.56774 -16.8892 73.1163
lradius 68.8662
lwrist 33.9862
lhand -19.8375 13.2384
lfingers 7.12502
lthumb 6.49672 43.1188
rfemur -33.6846 2.09877 32.1309
rtibia 30.3643
rfoot -23.4669 -8.50595
rtoes -21.2472
lfemur 25.8211 17.0454 -26.2131
ltibia 5.40694e-014
lfoot 10.4747 -15.9174
ltoes 20.0728
577
root 23.8681 15.6163 -19.5871 174.272 -46.2011 -172.85
lowerback 1.25197 -5.06416 -0.654642
upperback 1.43751 -6.78207 0.789284
thorax 0.947192 -3.41126 1.18819
lowerneck -6.61964 0.503267 1.64085
upperneck 3.49242 0.590374 -1.26457
head 2.25147 0.279196 -0.661074
rclavicle 4.48011e-014 -1.59028e-015
rhumerus -45.7044 -14.7216 -64.1146
rradius 18.6003
rwrist 9.43263
rhand -20.8394 -11.1033
rfingers 7.12502
rthumb 5.52937 -41.0112
lclavicle 4.48011e-014 -1.59028e-015
lhumerus 1.09101 -17.255 73.4599
lradius 69.2994
lwrist 33.961
lhand -19.6926 13.3204
lfingers 7.12502
lthumb 6.63659 43.1964
rfemur -33.2936 2.66585 31.4984
rtibia 30.8497
rfoot -23.2895 -9.02851
rtoes -19.9945
lfemur 26.4956 17.0561 -26.5836
ltibia 6.04305e-014
lfoot 12.4435 -15.4816
ltoes 20.4113
578
root 23.6749 15.5917 -19.656 174.645 -46.4486 -173.456
lowerback 1.15538 -5.0689 -0.817643
upperback 1.34879 -6.78663 0.791474
thorax 0.929292 -3.41369 1.27454
lowerneck -6.67171 0.461519 1.63332
upperneck 3.67727 0.543275 -1.40219
head 2.32263 0.251642 -0.706403
rclavicle -7.36746e-015 -7.95139e-015
rhumerus -45.8603 -14.7799 -63.9144
rradius 18.7505
rwrist 9.21009
rhand -21.0192 -11.1945
rfingers 7.12502
rthumb 5.3558 -41.1068
lclavicle -7.36746e-015 -7.95139e-015
lhumerus 0.578804 -17.6131 73.8718
lradius 69.6848
lwrist 33.8951
lhand -19.5019 13.3792
lfingers 7.12502
lthumb 6.82068 43.2493
rfemur -32.9952 3.38199 30.6865
rtibia 31.5175
rfoot -22.8843 -9.43821
rtoes -18.5418
lfemur 27.1446 17.0588 -26.9428
ltibia 4.45278e-014
lfoot 14.6531 -14.7692
ltoes 20.6627
579
root 23.481 15.5751 -19.7198 174.895 -46.6702 -173.929
lowerback 1.12449 -5.05911 -0.857796
upperback 1.28259 -6.77278 0.82181
thorax 0.886505 -3.40639 1.32795
lowerneck -6.70017 0.414041 1.64539
upperneck 3.76237 0.48674 -1.54854
head 2.35638 0.219066 -0.758096
rclavicle 1.75179e-015 -7.95139e-016
rhumerus -45.9699 -14.9087 -63.7165
rradius 18.8952
rwrist 9.00974
rhand -21.2757 -11.2708
rfingers 7.12502
rthumb 5.10819 -41.1892
lclavicle 1.75179e-015 -7.95139e-016
lhumerus 0.0326986 -17.9438 74.3682
lradius 70.0117
lwrist 33.7671
lhand -19.2706 13.4102
lfingers 7.12502
lthumb 7.04397 43.273
rfemur -32.7926 4.12076 29.842
rtibia 32.3253
rfoot -22.2837 -9.74406
rtoes -17.0056
lfemur 27.77 17.0813 -27.2009
ltibia 2.54444e-014
lfoot 17.08 -13.7685
ltoes 20.7077
580
root 23.288 15.5672 -19.7757 174.928 -46.8401 -174.152
lowerback 1.20308 -5.03458 -0.694526
upperback 1.23924 -6.74052 0.904134
thorax 0.788358 -3.38904 1.33302
lowerneck -6.6759 0.365473 1.66417
upperneck 3.71628 0.427288 -1.69188
head 2.33663 0.18519 -0.809468
rclavicle 9.81499e-015 -7.15625e-015
rhumerus -46.0072 -15.0818 -63.54
rradius 19.0169
rwrist 8.8224
rhand -21.597 -11.3399
rfingers 7.12502
rthumb 4.79793 -41.2655
lclavicle 9.81499e-015 -7.15625e-015
lhumerus -0.558231 -18.2135 74.9619
lradius 70.2715
lwrist 33.5654
lhand -19.0114 13.4129
lfingers 7.12502
lthumb 7.2941 43.2672
rfemur -32.6555 4.71314 29.1215
rtibia 33.2158
rfoot -21.5654 -9.87982
rtoes -15.4276
lfemur 28.3551 17.1429 -27.2704
ltibia 2.22639e-014
lfoot 19.76 -12.4239
ltoes 20.574
581
root 23.0986 15.5633 -19.8225 174.774 -46.9306 -174.208
lowerback 1.44352 -4.98658 -0.41507
upperback 1.21809 -6.67761 1.03163
thorax 0.614184 -3.35654 1.335
lowerneck -6.58697 0.314573 1.68524
upperneck 3.54534 0.363231 -1.82847
head 2.26334 0.149479 -0.858325
rclavicle 1.03548e-013 -1.23246e-014
rhumerus -45.9635 -15.2531 -63.4081
rradius 19.1139
rwrist 8.60892
rhand -21.967 -11.4204
rfingers 7.12502
rthumb 4.44066 -41.3538
lclavicle 1.03548e-013 -1.23246e-014
lhumerus -1.21559 -18.4042 75.6734
lradius 70.4548
lwrist 33.2843
lhand -18.7383 13.3946
lfingers 7.12502
lthumb 7.55774 43.2395
rfemur -32.519 5.01692 28.5579
rtibia 34.1316
rfoot -20.7295 -9.90244
rtoes -14.2672
lfemur 28.9101 17.2819 -27.203
ltibia -9.54166e-015
lfoot 22.7087 -10.6707
ltoes 20.2637
582
root 22.9126 15.56 -19.8599 174.446 -46.9694 -174.153
lowerback 1.8484 -4.92907 -0.0664275
upperback 1.2291 -6.60094 1.19382
thorax 0.377751 -3.31821 1.34786
lowerneck -6.43789 0.263027 1.69514
upperneck 3.27684 0.297154 -1.94453
head 2.14672 0.113569 -0.897709
rclavicle -2.85815e-014 -3.77691e-015
rhumerus -45.8277 -15.4354 -63.3
rradius 19.1697
rwrist 8.43916
rhand -22.357 -11.5108
rfingers 7.12502
rthumb 4.06399 -41.4518
lclavicle -2.85815e-014 -3.77691e-015
lhumerus -1.95194 -18.493 76.51
lradius 70.5477
lwrist 32.9449
lhand -18.4906 13.3666
lfingers 7.12502
lthumb 7.79687 43.2029
rfemur -32.2877 4.92475 28.1537
rtibia 35.0072
rfoot -19.8275 -9.77104
rtoes -13.7665
lfemur 24.2506 17.4675 -27.0504
ltibia 9.59948
lfoot 22.4916 -11.4873
ltoes 19.6262
583
root 22.7299 15.5545 -19.8888 173.83 -46.9717 -173.872
lowerback 2.4179 -4.86844 0.428699
upperback 1.28825 -6.51587 1.40206
thorax 0.0886262 -3.27726 1.33957
lowerneck -6.24942 0.203419 1.69191
upperneck 2.96254 0.218605 -2.01698
head 2.00783 0.0728943 -0.920555
rclavicle -1.17715e-013 -4.77083e-015
rhumerus -45.6002 -15.5958 -63.2453
rradius 19.1931
rwrist 8.29
rhand -22.7319 -11.6294
rfingers 7.12502
rthumb 3.70203 -41.577
lclavicle -1.17715e-013 -4.77083e-015
lhumerus -2.76243 -18.4951 77.4643
lradius 70.5277
lwrist 32.5515
lhand -18.2693 13.3241
lfingers 7.12502
lthumb 8.01044 43.1523
rfemur -31.8467 4.45998 28.0018
rtibia 35.786
rfoot -18.9545 -9.37176
rtoes -13.5859
lfemur 20.8918 17.6861 -26.6925
ltibia 16.8951
lfoot 23.2623 -11.5383
ltoes 18.5764
